# This file uses meters as units for non-parametric coordinates.

mtllib Rock01.mtl
g default
v -140.292709 0.244495 126.851700
v 140.292709 0.244495 126.851700
v -15.515591 92.970612 15.515564
v 15.515583 92.970612 15.515564
v -15.515591 92.970612 -15.515560
v 15.515583 92.970612 -15.515560
v -140.292709 0.244495 -126.851700
v 140.292709 0.244495 -126.851700
v 20.258966 80.550781 36.285553
v -36.285557 80.550774 36.285553
v -36.285557 80.550766 -36.285561
v 20.258966 80.550766 -36.285561
v 114.894524 21.585072 103.886841
v -114.894524 21.585072 103.886841
v -114.894524 21.585072 -103.886841
v 69.020157 21.585072 -87.555824
v 58.605152 47.328590 68.839752
v -90.461525 47.328587 68.839767
v -90.461525 47.328583 -68.839775
v 58.605152 47.328583 -68.839760
v 36.293255 66.329170 54.044052
v -57.149948 66.329163 54.044052
v -57.149948 66.329163 -54.044060
v 36.293255 66.329163 -54.044060
v -5.881233 47.328587 86.342148
v 15.487560 21.585072 114.848061
v 18.911182 0.244495 126.851700
v 18.911182 0.244495 -126.851700
v 15.487556 6.154583 -103.886841
v -5.881237 47.328583 -68.839767
v -4.130365 66.329163 -44.181099
v -4.202250 80.550766 -36.285561
v 2.091467 92.970612 -15.515560
v 2.091467 92.970612 15.515564
v -4.202249 80.550781 36.285553
v -4.130363 66.329163 63.847481
v -22.268263 47.328587 68.839752
v -9.773350 21.585072 103.886841
v -11.933817 0.244495 126.851700
v -11.933817 0.244495 -126.851700
v -31.954695 21.585072 -103.886841
v -22.268267 47.328583 -86.177094
v -14.402658 66.329163 -54.044060
v -10.418239 80.550766 -36.285561
v -8.737610 92.970612 -15.515560
v -1.319817 92.970612 15.515564
v -10.418238 80.550781 36.285553
v -14.402657 66.329163 54.044052
v -89.418610 66.329163 22.159203
v -122.730194 47.328587 28.225760
v -147.163177 21.585072 42.595810
v -177.149628 0.244495 52.011887
v -11.933817 0.244495 52.011887
v 18.911182 0.244495 52.011887
v 140.292709 0.244495 52.011887
v 101.550377 21.585072 42.595810
v 61.640770 47.328587 28.225754
v 51.095028 66.329163 22.159203
v 47.999847 80.550774 14.877843
v 15.515583 92.970612 6.361711
v 2.091468 99.545654 6.361713
v -12.581552 99.545654 6.361713
v -29.730322 92.970612 8.336710
v -68.554222 80.550774 14.877843
v 51.095028 66.329163 -12.897653
v 61.640770 47.328583 -16.428658
v 101.550377 21.585072 -24.792660
v 140.292709 0.244495 -30.273239
v 18.911182 0.244495 -30.273239
v -11.933817 0.244495 -30.273239
v -177.149628 0.244495 -30.273239
v -147.163177 21.585072 -24.792660
v -122.730194 47.328583 -16.428659
v -89.418610 66.329163 -12.897653
v -68.554222 80.550766 -8.659575
v -29.730322 92.970612 -8.640839
v -13.261013 99.545654 -3.702799
v 2.091468 99.545654 -3.702799
v 15.515583 92.970612 -3.702797
v 47.999847 80.550774 -8.659575
vt 0.375000 0.000000
vt 0.625000 0.000000
vt 0.375000 0.250000
vt 0.625000 0.250000
vt 0.375000 0.500000
vt 0.625000 0.500000
vt 0.375000 0.750000
vt 0.625000 0.750000
vt 0.375000 1.000000
vt 0.625000 1.000000
vt 0.875000 0.000000
vt 0.875000 0.250000
vt 0.125000 0.000000
vt 0.125000 0.250000
vt 0.625000 0.207215
vt 0.375000 0.207215
vt 0.125000 0.207215
vt 0.375000 0.542785
vt 0.625000 0.542785
vt 0.875000 0.207215
vt 0.625000 0.053351
vt 0.375000 0.053351
vt 0.125000 0.053351
vt 0.375000 0.696649
vt 0.625000 0.696649
vt 0.875000 0.053351
vt 0.625000 0.117405
vt 0.375000 0.117405
vt 0.125000 0.117405
vt 0.375000 0.632595
vt 0.625000 0.632595
vt 0.875000 0.117405
vt 0.625000 0.158223
vt 0.375000 0.158223
vt 0.125000 0.158223
vt 0.375000 0.591777
vt 0.625000 0.591777
vt 0.875000 0.158223
vt 0.516850 0.117405
vt 0.516850 0.053351
vt 0.516850 0.000000
vt 0.516850 1.000000
vt 0.516850 0.750000
vt 0.516850 0.696649
vt 0.516850 0.632595
vt 0.516850 0.591777
vt 0.516850 0.542785
vt 0.516850 0.500000
vt 0.516850 0.250000
vt 0.516850 0.207215
vt 0.516850 0.158223
vt 0.489367 0.117405
vt 0.489367 0.053351
vt 0.489367 0.000000
vt 0.489367 1.000000
vt 0.489367 0.750000
vt 0.489367 0.696649
vt 0.489367 0.632595
vt 0.489367 0.591777
vt 0.489367 0.542785
vt 0.489367 0.500000
vt 0.489367 0.250000
vt 0.489367 0.207215
vt 0.489367 0.158223
vt 0.301253 0.158223
vt 0.301253 0.117405
vt 0.301253 0.053351
vt 0.301253 0.000000
vt 0.375000 0.926253
vt 0.489367 0.926253
vt 0.516850 0.926253
vt 0.625000 0.926253
vt 0.698747 0.000000
vt 0.698747 0.053351
vt 0.698747 0.117405
vt 0.698747 0.158223
vt 0.698747 0.207215
vt 0.625000 0.323747
vt 0.698747 0.250000
vt 0.516850 0.323747
vt 0.489367 0.323747
vt 0.301253 0.250000
vt 0.375000 0.323747
vt 0.301253 0.207215
vt 0.779831 0.158223
vt 0.779831 0.117405
vt 0.779831 0.053351
vt 0.625000 0.845169
vt 0.779831 0.000000
vt 0.516850 0.845169
vt 0.489367 0.845169
vt 0.220169 0.000000
vt 0.375000 0.845169
vt 0.220169 0.053351
vt 0.220169 0.117405
vt 0.220169 0.158223
vt 0.220169 0.207215
vt 0.220169 0.250000
vt 0.375000 0.404831
vt 0.489367 0.404831
vt 0.516850 0.404831
vt 0.625000 0.404831
vt 0.779831 0.250000
vt 0.779831 0.207215
vn 0.005079 0.645831 0.763463
vn 0.037748 0.648431 0.760337
vn 0.055592 0.707682 0.704341
vn 0.028045 0.750638 0.660118
vn 0.129588 0.885576 0.446052
vn 0.224595 0.917101 0.329368
vn 0.345196 0.925093 0.158248
vn 0.186369 0.962615 0.196570
vn 0.051173 0.806943 -0.588409
vn -0.015040 0.816206 -0.577565
vn -0.038229 0.897768 -0.438806
vn 0.004428 0.898140 -0.439687
vn 0.000000 -1.000000 0.000000
vn 0.000000 -1.000000 0.000000
vn 0.000000 -1.000000 0.000000
vn 0.000000 -1.000000 0.000000
vn 0.572600 0.817911 -0.056129
vn 0.528566 0.848426 -0.028152
vn 0.512282 0.858460 -0.024751
vn 0.550235 0.833238 -0.054369
vn -0.538619 0.831436 0.136393
vn -0.494472 0.832137 0.251087
vn -0.500989 0.819673 0.277750
vn -0.565615 0.809082 0.159582
vn -0.000125 0.858798 0.512314
vn 0.058450 0.857464 0.511213
vn 0.000000 0.858261 0.513214
vn 0.000000 0.858261 0.513214
vn -0.381748 0.897426 0.221123
vn -0.278357 0.881522 0.381360
vn -0.217315 0.909894 0.353366
vn -0.257982 0.943157 0.209523
vn 0.000000 0.858260 -0.513214
vn 0.000000 0.858260 -0.513215
vn -0.080103 0.713211 -0.696358
vn 0.000292 0.746459 -0.665432
vn 0.464596 0.797260 0.385391
vn 0.641935 0.737817 0.208676
vn 0.356330 0.925333 0.129567
vn 0.344557 0.885135 0.312756
vn 0.107438 0.815021 0.569384
vn -0.043139 0.774074 0.631623
vn -0.459967 0.823681 0.331632
vn -0.567936 0.804702 0.172925
vn 0.145792 0.667093 -0.730569
vn 0.007508 0.646465 -0.762907
vn 0.592573 0.805436 0.011391
vn 0.531796 0.846801 -0.010968
vn -0.007467 0.787019 0.616884
vn 0.148738 0.767837 0.623140
vn -0.361689 0.855329 0.370937
vn -0.437735 0.873185 0.214325
vn 0.033694 0.686648 -0.726208
vn -0.072816 0.692672 -0.717568
vn 0.767196 0.616696 0.176344
vn 0.647133 0.716262 0.261127
vn -0.073997 0.740277 0.668217
vn -0.068176 0.754271 0.653015
vn -0.024561 0.716834 0.696811
vn 0.000000 -1.000000 -0.000000
vn 0.000000 -1.000000 -0.000000
vn 0.031418 0.735568 -0.676722
vn 0.069901 0.803213 -0.591576
vn 0.068811 0.738802 -0.670401
vn 0.091693 0.790744 -0.605241
vn 0.053126 0.799470 -0.598352
vn 0.000000 0.858261 -0.513214
vn -0.049706 0.818673 0.572105
vn -0.189208 0.952806 0.237406
vn -0.047428 0.826247 0.561307
vn -0.000000 0.858261 0.513214
vn -0.123383 0.721313 0.681531
vn 0.000000 0.757590 0.652731
vn 0.000000 0.790098 0.612981
vn 0.000000 0.732538 0.680726
vn 0.000000 -1.000000 -0.000000
vn 0.000000 -1.000000 -0.000000
vn -0.022455 0.734578 -0.678153
vn 0.000000 0.732538 -0.680726
vn -0.079831 0.754333 -0.651620
vn -0.079178 0.807948 -0.583911
vn 0.000000 0.793860 -0.608101
vn 0.000000 0.858260 -0.513214
vn -0.138495 0.824869 0.548097
vn -0.320309 0.936073 0.145499
vn -0.000000 0.796279 0.604930
vn -0.000000 0.858261 0.513214
vn 0.000000 0.643588 0.765372
vn -0.510367 0.812203 -0.282580
vn -0.579244 0.798751 -0.162706
vn -0.453902 0.869982 -0.192628
vn -0.403537 0.858317 -0.316938
vn -0.541668 0.808141 -0.231310
vn -0.586640 0.797242 -0.142334
vn -0.527922 0.823496 -0.207732
vn -0.553757 0.824338 -0.117562
vn 0.000000 -1.000000 0.000000
vn 0.000000 -1.000000 0.000000
vn 0.000000 -1.000000 0.000000
vn 0.000000 -1.000000 0.000000
vn 0.000000 -1.000000 0.000000
vn 0.000000 -1.000000 0.000000
vn 0.000000 -1.000000 0.000000
vn 0.000000 -1.000000 0.000000
vn 0.457612 0.887229 -0.058444
vn 0.390180 0.919678 -0.044190
vn 0.336419 0.939205 -0.068681
vn 0.421991 0.900647 -0.103727
vn 0.651208 0.754072 -0.085462
vn 0.662547 0.725672 -0.185558
vn 0.781874 0.604536 -0.152347
vn 0.688707 0.694198 -0.209217
vn 0.646861 0.736475 -0.197929
vn 0.539347 0.768056 -0.345245
vn 0.378130 0.916349 -0.131618
vn 0.393588 0.876610 -0.276847
vn 0.166356 0.964053 -0.207191
vn 0.333364 0.932330 -0.140102
vn 0.229626 0.937645 -0.260949
vn 0.113746 0.917399 -0.381367
vn -0.186766 0.964143 -0.188536
vn -0.054087 0.876840 -0.477731
vn -0.313779 0.941305 -0.124449
vn -0.150241 0.875758 -0.458776
vn -0.331120 0.873846 -0.356024
vn -0.401971 0.892100 -0.206344
vn -0.278278 0.935125 -0.219322
vn -0.256048 0.903012 -0.344977
s 1
g Rock
usemtl initialShadingGroup
f 27/41/1 2/2/2 13/21/3 26/40/4
s 2
f 34/49/5 4/4/6 60/78/7 61/80/8
s 3
f 29/44/9 16/25/10 8/8/11 28/43/12
s 4
f 54/71/13 55/72/14 2/10/15 27/42/16
s 5
f 2/2/17 55/73/18 56/74/19 13/21/20
s 6
f 52/68/21 1/1/22 14/22/23 51/67/24
s 1
f 35/50/25 9/15/26 4/4/27 34/49/28
s 6
f 64/84/29 10/16/30 3/3/31 63/82/32
s 3
f 33/48/33 6/6/34 12/19/35 32/47/36
s 5
f 9/15/37 59/77/38 60/79/39 4/4/40
s 1
f 26/40/4 13/21/3 17/27/41 25/39/42
s 6
f 51/67/24 14/22/23 18/28/43 50/66/44
s 3
f 30/45/45 20/31/46 16/25/10 29/44/9
s 5
f 13/21/20 56/74/19 57/75/47 17/27/48
s 1
f 36/51/49 25/39/42 17/27/41 21/33/50
s 6
f 50/66/44 18/28/43 22/34/51 49/65/52
s 3
f 31/46/53 24/37/54 20/31/46 30/45/45
s 5
f 17/27/48 57/75/47 58/76/55 21/33/56
s 1
f 36/51/49 21/33/50 9/15/26 35/50/25
s 6
f 64/84/29 49/65/52 22/34/51 10/16/30
s 3
f 32/47/36 12/19/35 24/37/54 31/46/53
s 5
f 21/33/56 58/76/55 59/77/38 9/15/37
s 1
f 38/53/57 26/40/4 25/39/42 37/52/58
f 39/54/59 27/41/1 26/40/4 38/53/57
s 4
f 53/70/60 54/71/13 27/42/16 39/55/61
s 3
f 41/57/62 29/44/9 28/43/12 40/56/63
f 42/58/64 30/45/45 29/44/9 41/57/62
f 43/59/65 31/46/53 30/45/45 42/58/64
f 44/60/66 32/47/36 31/46/53 43/59/65
f 45/61/67 33/48/33 32/47/36 44/60/66
s 2
f 46/62/68 34/49/5 61/80/8 62/81/69
s 1
f 47/63/70 35/50/25 34/49/28 46/62/71
f 48/64/72 36/51/49 35/50/25 47/63/70
f 48/64/72 37/52/58 25/39/42 36/51/49
f 14/22/73 38/53/57 37/52/58 18/28/74
f 1/1/75 39/54/59 38/53/57 14/22/73
s 4
f 52/69/76 53/70/60 39/55/61 1/9/77
s 3
f 15/24/78 41/57/62 40/56/63 7/7/79
f 19/30/80 42/58/64 41/57/62 15/24/78
f 23/36/81 43/59/65 42/58/64 19/30/80
f 11/18/82 44/60/66 43/59/65 23/36/81
f 5/5/83 45/61/67 44/60/66 11/18/82
s 2
f 3/3/84 46/62/68 62/81/69 63/83/85
s 1
f 10/16/86 47/63/70 46/62/71 3/3/87
f 22/34/88 48/64/72 47/63/70 10/16/86
f 18/28/74 37/52/58 48/64/72 22/34/88
s 6
f 19/29/89 73/95/90 74/96/91 23/35/92
f 15/23/93 72/94/94 73/95/90 19/29/89
f 7/13/95 71/92/96 72/94/94 15/23/93
s 4
f 7/7/97 40/56/98 70/91/99 71/93/100
f 40/56/98 28/43/101 69/90/102 70/91/99
f 28/43/101 8/8/103 68/88/104 69/90/102
s 5
f 67/87/105 68/89/106 8/11/107 16/26/108
f 66/86/109 67/87/105 16/26/108 20/32/110
f 65/85/111 66/86/109 20/32/110 24/38/112
f 80/104/113 65/85/111 24/38/112 12/20/114
f 79/103/115 80/104/113 12/20/114 6/12/116
s 2
f 78/101/117 79/102/118 6/6/119 33/48/120
f 77/100/121 78/101/117 33/48/120 45/61/122
f 76/99/123 77/100/121 45/61/122 5/5/124
s 6
f 11/17/125 75/97/126 76/98/127 5/14/128
f 23/35/92 74/96/91 75/97/126 11/17/125
s 5
f 58/76/55 57/75/47 66/86/109 65/85/111
f 57/75/47 56/74/19 67/87/105 66/86/109
f 56/74/19 55/73/18 68/89/106 67/87/105
s 4
f 69/90/102 68/88/104 55/72/14 54/71/13
f 70/91/99 69/90/102 54/71/13 53/70/60
f 71/93/100 70/91/99 53/70/60 52/69/76
s 6
f 72/94/94 71/92/96 52/68/21 51/67/24
f 73/95/90 72/94/94 51/67/24 50/66/44
f 74/96/91 73/95/90 50/66/44 49/65/52
f 75/97/126 74/96/91 49/65/52 64/84/29
f 76/98/127 75/97/126 64/84/29 63/82/32
s 2
f 63/83/85 62/81/69 77/100/121 76/99/123
f 62/81/69 61/80/8 78/101/117 77/100/121
f 61/80/8 60/78/7 79/102/118 78/101/117
s 5
f 60/79/39 59/77/38 80/104/113 79/103/115
f 59/77/38 58/76/55 65/85/111 80/104/113
